<?xml version="1.0" encoding="utf-8"?>
<!-- Generator: Adobe Illustrator 24.2.3, SVG Export Plug-In . SVG Version: 6.00 Build 0)  -->
<svg version="1.1" id="Layer_1" xmlns="http://www.w3.org/2000/svg" xmlns:xlink="http://www.w3.org/1999/xlink" x="0px" y="0px"
	 viewBox="0 0 21.2 20.8" style="enable-background:new 0 0 21.2 20.8;" xml:space="preserve">
<g>
	<path d="M5.2,2.7c0,1.2-0.9,2.1-2.3,2.1s-2.2-1-2.2-2.1c0-1.2,0.9-2.1,2.3-2.1C4.3,0.6,5.1,1.5,5.2,2.7z M0.7,20.3V6.5H5v13.8H0.7z
		"/>
	<path d="M7.6,10.9c0-1.7-0.1-3.2-0.1-4.4h3.7l0.2,1.9h0.1c0.6-0.9,1.9-2.2,4.2-2.2c2.8,0,4.9,1.9,4.9,5.9v8.1h-4.3v-7.6
		c0-1.8-0.6-3-2.2-3c-1.2,0-1.9,0.8-2.2,1.6c-0.1,0.3-0.1,0.7-0.1,1.1v7.9H7.6V10.9L7.6,10.9z"/>
</g>
</svg>
