<?xml version="1.0" encoding="utf-8"?>
<!-- Generator: Adobe Illustrator 24.2.3, SVG Export Plug-In . SVG Version: 6.00 Build 0)  -->
<svg version="1.1" id="Capa_1" xmlns="http://www.w3.org/2000/svg" xmlns:xlink="http://www.w3.org/1999/xlink" x="0px" y="0px"
	 viewBox="0 0 39 39" style="enable-background:new 0 0 39 39;" xml:space="preserve">
<path d="M19.5,1C9.3,1,1,9.3,1,19.5S9.3,38,19.5,38S38,29.7,38,19.5S29.7,1,19.5,1z M28.8,16.7c0,0.5-0.4,0.9-0.9,0.9h-1.6
	c-0.5,0-0.9-0.4-0.9-0.9V15c0-0.5-0.4-0.9-0.9-0.9h-8.1c-0.5,0-0.9,0.4-0.9,0.9v2.9c0,0.5,0.4,0.9,0.9,0.9h8.2c0.5,0,0.9,0.3,1,0.7
	l0.5,1.7c0.1,0.2,0.3,0.2,0.3,0.2h1.4c0.5,0,0.9,0.4,0.9,0.9V26c0,0.5-0.3,0.9-0.8,1l-1.6,0.4c-0.2,0-0.4,0.2-0.4,0.4l-0.5,1.7
	c-0.1,0.5-0.5,0.8-1,0.8h-8c-0.5,0-0.9-0.3-1-0.8L15,27.8c-0.1-0.2-0.2-0.4-0.4-0.4L13,27c-0.5-0.1-0.8-0.5-0.8-1v-1.6
	c0-0.5,0.4-0.9,0.9-0.9h1.6c0.5,0,0.9,0.4,0.9,0.9V26c0,0.5,0.4,0.9,0.9,0.9h8.1c0.5,0,0.9-0.4,0.9-0.9v-3c0-0.5-0.4-0.9-0.9-0.9
	h-8.2c-0.5,0-0.9-0.3-1-0.7l-0.5-1.7c-0.1-0.2-0.3-0.2-0.3-0.2h-1.4c-0.5,0-0.9-0.4-0.9-0.9V15c0-0.5,0.3-0.9,0.8-1l1.6-0.5
	c0.2-0.1,0.4-0.2,0.4-0.4l0.4-1.7c0.1-0.5,0.5-0.8,1-0.8h8c0.5,0,0.9,0.3,1,0.8l0.5,1.7c0,0.2,0.2,0.4,0.4,0.4L28,14
	c0.5,0.1,0.8,0.5,0.8,1V16.7z"/>
</svg>
